<svg xmlns="http://www.w3.org/2000/svg" viewBox="0 0 48 48">
  <rect width="48" height="48" rx="12" fill="#090a09"/>
  <g fill="#d99b37">
    <circle cx="24" cy="10" r="3.5"/>
    <path d="M23 2h2v4h-2zm-10.3 4.2 1.4-1.4 3.2 3.1-1.4 1.4zm19.9 0 1.4-1.4 3.1 3.1-1.4 1.4zM7 13h4v2H7zm30 0h4v2h-4z"/>
    <path d="m4 37 14-18 5 7 5-11 16 22H4zm0 2h40v3H4z"/>
  </g>
  <path d="m8 35 10-13 5 7 5-10 12 16" fill="none" stroke="#090a09" stroke-linecap="round" stroke-linejoin="round" stroke-width="1.8"/>
</svg>
